<svg width="25" height="25" viewBox="0 0 25 25" fill="none" xmlns="http://www.w3.org/2000/svg">
<path d="M1.76316 6.26999C0.574451 5.13037 -0.525082 2.13743 0.64385 0.918153C1.84618 -0.335964 4.8494 0.671289 6.03811 1.81091L10.0908 5.69629L19.4587 2.91743C19.9908 2.759 20.563 2.89972 20.9627 3.28292L22.916 5.15564C23.2845 5.50885 23.2114 6.12077 22.77 6.37947L15.3358 10.7246L18.9088 14.1502L22.3341 13.5831C22.572 13.5437 22.819 13.6201 22.9927 13.7867L24.4526 15.1862C24.7237 15.4461 24.7288 15.8722 24.4716 16.1404C24.4282 16.1857 24.3778 16.2243 24.324 16.2596L19.552 19.0455L16.9697 23.9307C16.9402 23.9893 16.9003 24.0379 16.8568 24.0832C16.5963 24.3549 16.1703 24.361 15.9027 24.1044L14.4428 22.7048C14.2691 22.5382 14.1824 22.2947 14.2117 22.0554L14.6339 18.6092L11.0573 15.1804L7.02936 22.7911C6.79297 23.2464 6.18468 23.3452 5.81624 22.992L3.86287 21.1193C3.46316 20.736 3.30179 20.1668 3.43432 19.632L5.81589 10.1554L1.76316 6.26999Z" fill="black"/>
</svg>
